<svg version="1.1" xmlns="http://www.w3.org/2000/svg" viewBox="0 0 298.32160157561304 282.9468096408993" width="298.32160157561304" height="282.9468096408993" class="excalidraw-svg">
  <!-- svg-source:excalidraw -->
  
  <defs>
    <style class="style-fonts">
      
    </style>
    
  </defs>
  <rect x="0" y="0" width="298.32160157561304" height="282.9468096408993" fill="#ffffff"></rect><g stroke-linecap="round"><g transform="translate(28.454189253039658 32.436090088076895) rotate(0 -0.524169921875 115.64219665527344)"><path d="M-0.65 -0.39 C-0.95 38.03, -1.1 191.91, -1.07 230.36 M1.22 -1.64 C0.68 36.92, -1.68 192.62, -2.02 231.41" stroke="#1e1e1e" stroke-width="2" fill="none"></path></g></g><mask></mask><g stroke-linecap="round"><g transform="translate(22.178188276477158 259.3522583009675) rotate(0 118.33267211914062 -2.073577880859375)"><path d="M0.38 0.51 C39.98 -0.39, 197.83 -3.53, 237.32 -4.26 M-0.88 -0.27 C38.65 -0.47, 197.09 -2.43, 236.72 -2.78" stroke="#1e1e1e" stroke-width="2" fill="none"></path></g></g><mask></mask><g stroke-linecap="round"><g transform="translate(25.505214643664658 10.45943603534252) rotate(0 -5.869476318359375 8.2889404296875)"><path d="M-0.13 -0.46 C-2.11 2.24, -10.12 13.35, -12.08 16.11 M0.81 0.49 C-0.98 3.25, -8.83 13.91, -11.02 16.57" stroke="#1e1e1e" stroke-width="2" fill="none"></path></g></g><mask></mask><g stroke-linecap="round"><g transform="translate(10.246730756945908 13.461923217959708) rotate(0 9.97381591796875 7.185295104980469)"><path d="M-0.25 -0.24 C3.13 2.25, 16.53 12.06, 19.92 14.56 M0.63 0.83 C3.97 3.19, 16.27 11.52, 19.47 13.68" stroke="#1e1e1e" stroke-width="2" fill="none"></path></g></g><mask></mask><g stroke-linecap="round"><g transform="translate(264.83785624522716 237.95327148456127) rotate(0 5.634124755859375 6.247467041015625)"><path d="M0.43 -0.24 C2.46 1.93, 9.8 10.39, 11.66 12.52 M-0.02 0.83 C2.02 3.13, 9.53 11.18, 11.44 13.23" stroke="#1e1e1e" stroke-width="2" fill="none"></path></g></g><mask></mask><g stroke-linecap="round"><g transform="translate(276.1061057569459 250.44820556659252) rotate(0 5.946136474609375 -7.746917724609375)"><path d="M0.47 0.31 C2.46 -2.37, 10.4 -13.01, 12.22 -15.6 M0.05 -0.01 C1.97 -2.37, 9.89 -12.26, 11.95 -14.96" stroke="#1e1e1e" stroke-width="2" fill="none"></path></g></g><mask></mask><g stroke-linecap="round"><g transform="translate(277.31490702647716 247.3315979005769) rotate(0 0.22467041015625 12.591201782226562)"><path d="M-0.21 -0.28 C-0.12 4.04, 0.11 21.46, 0.18 25.62 M0.68 0.76 C0.99 4.96, 1.43 20.83, 1.28 24.87" stroke="#1e1e1e" stroke-width="2" fill="none"></path></g></g><mask></mask><g stroke-linecap="round" transform="translate(70.82064433116466 179.19075927753002) rotate(0 17.945404052734375 16.816802978515625)"><path d="M19 0.49 C22.7 0.38, 27.21 1.8, 30.05 4.2 C32.9 6.6, 35.52 11.24, 36.06 14.87 C36.59 18.5, 35.43 23.01, 33.26 25.98 C31.09 28.94, 26.72 31.6, 23.02 32.68 C19.32 33.76, 14.54 33.77, 11.04 32.46 C7.53 31.15, 3.72 28, 1.99 24.81 C0.26 21.62, -0.14 16.94, 0.67 13.32 C1.48 9.69, 3.78 5.22, 6.84 3.07 C9.91 0.91, 16.93 0.79, 19.06 0.39 C21.2 0, 19.66 0.47, 19.65 0.69 M20.98 0.28 C24.77 0.72, 29.38 3.71, 31.91 6.53 C34.44 9.35, 36.08 13.78, 36.16 17.23 C36.25 20.68, 34.92 24.47, 32.4 27.22 C29.88 29.96, 24.84 33.09, 21.05 33.68 C17.26 34.27, 13.1 32.62, 9.66 30.77 C6.23 28.92, 1.84 25.71, 0.46 22.58 C-0.92 19.45, 0.1 15.26, 1.38 11.98 C2.67 8.7, 4.89 4.8, 8.17 2.9 C11.46 1, 18.93 0.89, 21.1 0.56 C23.28 0.23, 21.28 0.73, 21.2 0.92" stroke="#1e1e1e" stroke-width="2" fill="none"></path></g><g stroke-linecap="round" transform="translate(163.7445334913209 77.20241699237377) rotate(0 23.30316162109375 19.061538696289062)"><path d="M26.54 0.31 C31.24 0.67, 37.22 3.38, 40.6 6.36 C43.98 9.33, 46.62 14.17, 46.82 18.16 C47.01 22.15, 44.87 27.1, 41.77 30.31 C38.66 33.52, 33.02 36.47, 28.2 37.44 C23.38 38.41, 17.16 37.93, 12.84 36.13 C8.53 34.33, 4.21 30.37, 2.31 26.64 C0.4 22.91, 0.02 17.71, 1.4 13.75 C2.78 9.79, 6.29 5.09, 10.58 2.87 C14.88 0.65, 24.4 0.73, 27.18 0.42 C29.97 0.11, 27.46 0.79, 27.3 1.01 M27.87 0.28 C32.52 0.71, 38.08 3.21, 41.15 6.27 C44.22 9.33, 46.34 14.46, 46.27 18.63 C46.2 22.8, 44 28.16, 40.73 31.3 C37.46 34.44, 31.55 36.87, 26.65 37.47 C21.75 38.07, 15.52 36.88, 11.34 34.92 C7.16 32.97, 3.14 29.48, 1.57 25.73 C0 21.98, 0.3 16.2, 1.93 12.42 C3.55 8.64, 7.01 5.02, 11.33 3.03 C15.64 1.04, 25.25 0.75, 27.83 0.48 C30.41 0.2, 27.05 1.17, 26.81 1.39" stroke="#1e1e1e" stroke-width="2" fill="none"></path></g><g stroke-linecap="round" transform="translate(66.72272174153764 12.571670657115533) rotate(47.3657651818819 69.51802757009571 137.57481524394962)"><path d="M48.19 7.68 C55.38 0.53, 64.28 -1.14, 72.6 -0.33 C80.93 0.48, 90.36 5.81, 98.16 12.54 C105.96 19.28, 113.69 28.32, 119.4 40.09 C125.11 51.86, 129.06 67.88, 132.41 83.16 C135.76 98.44, 138.92 115.37, 139.51 131.75 C140.09 148.14, 138.79 165.76, 135.91 181.46 C133.03 197.16, 127.76 213.28, 122.23 225.96 C116.71 238.64, 109.86 249.61, 102.77 257.55 C95.67 265.49, 87.96 271.4, 79.64 273.6 C71.32 275.8, 61.1 274.54, 52.85 270.74 C44.6 266.95, 36.78 260.2, 30.14 250.8 C23.5 241.41, 17.6 228.16, 12.99 214.36 C8.38 200.57, 4.42 184.19, 2.5 168.02 C0.57 151.86, 0.45 133.75, 1.45 117.37 C2.46 100.99, 4.67 84.15, 8.53 69.75 C12.4 55.36, 17.2 42.14, 24.64 30.99 C32.08 19.85, 47.53 7.33, 53.18 2.9 C58.83 -1.54, 58.23 1.99, 58.51 4.4" stroke="#1e1e1e" stroke-width="2.5" fill="none" stroke-dasharray="1.5 8"></path></g><g stroke-linecap="round"><g transform="translate(54.72420878428966 151.29116210956127) rotate(0 11.31280517578125 0.1034088134765625)"><path d="M0.42 -0.22 C4.21 -0.18, 19.3 -0.33, 23.05 -0.3 M-0.03 -0.8 C3.7 -0.67, 19.04 -0.06, 22.83 0.14" stroke="#1e1e1e" stroke-width="2" fill="none"></path></g></g><mask></mask><g stroke-linecap="round"><g transform="translate(77.34981913585216 151.70836792010815) rotate(0 -12.37188720703125 6.803741455078125)"><path d="M-0.53 -0.35 C-4.66 1.9, -20.73 11.71, -24.77 13.95 M0.2 0.65 C-4 2.72, -21 11.03, -25.21 13.17" stroke="#1e1e1e" stroke-width="2" fill="none"></path></g></g><mask></mask><g stroke-linecap="round"><g transform="translate(52.60604472178966 165.08406982440502) rotate(0 13.61639404296875 -0.05169677734375)"><path d="M0.24 -0.53 C4.74 -0.53, 23.02 -0.07, 27.53 0.05 M-0.3 0.39 C4.11 0.21, 22.71 -0.66, 27.25 -0.84" stroke="#1e1e1e" stroke-width="2" fill="none"></path></g></g><mask></mask><g stroke-linecap="round"><g transform="translate(84.92379374522716 155.2671447755769) rotate(0 -0.376190185546875 8.276458740234375)"><path d="M-0.41 0.08 C-0.5 2.97, -0.18 14.08, -0.33 16.9 M0.38 -0.35 C0.23 2.41, -0.44 13.36, -0.55 16.12" stroke="#1e1e1e" stroke-width="2" fill="none"></path></g></g><mask></mask><g stroke-linecap="round"><g transform="translate(164.4684104444459 53.556939697451895) rotate(0 15.6685791015625 -1.1072235107421875)"><path d="M0.49 0.14 C5.8 -0.14, 26.7 -1.35, 31.77 -1.73 M0.08 -0.26 C5.37 -0.69, 26.23 -2.25, 31.57 -2.45" stroke="#1e1e1e" stroke-width="2" fill="none"></path></g></g><mask></mask><g stroke-linecap="round"><g transform="translate(195.11373515147716 51.81319580096752) rotate(0 -11.129180908203125 4.6338958740234375)"><path d="M-0.01 -0.37 C-3.72 1.18, -18.47 7.4, -22.1 9 M-0.69 0.62 C-4.46 2.27, -18.91 8.03, -22.46 9.57" stroke="#1e1e1e" stroke-width="2" fill="none"></path></g></g><mask></mask><g stroke-linecap="round"><g transform="translate(170.7835959913209 65.0034729005769) rotate(0 13.81072998046875 -0.9396209716796875)"><path d="M0.45 0.18 C5.06 -0.14, 23.24 -1.66, 27.79 -2.04 M0.02 -0.21 C4.56 -0.44, 22.87 -1.19, 27.44 -1.42" stroke="#1e1e1e" stroke-width="2" fill="none"></path></g></g><mask></mask><g stroke-linecap="round"><g transform="translate(175.7616233350709 60.332147216983145) rotate(0 -1.383575439453125 2.109222412109375)"><path d="M-0.34 -0.12 C-0.77 0.59, -2.3 3.81, -2.74 4.52 M0.13 -0.49 C-0.33 0.11, -2.43 3.23, -3 4.05" stroke="#1e1e1e" stroke-width="2" fill="none"></path></g></g><mask></mask></svg>