<svg version="1.1" xmlns="http://www.w3.org/2000/svg" viewBox="0 0 177.6953125 171.21875" width="177.6953125" height="171.21875" class="excalidraw-svg">
  <!-- svg-source:excalidraw -->
  
  <defs>
    <style class="style-fonts">
      
    </style>
    
  </defs>
  <rect x="0" y="0" width="177.6953125" height="171.21875" fill="#ffffff"></rect><g stroke-linecap="round" transform="translate(10 10) rotate(0 78.84765625 75.609375)"><path d="M32 0 C62.36 -1.02, 91.91 -1.42, 125.7 0 M32 0 C58.45 -0.37, 82.29 1.12, 125.7 0 M125.7 0 C146.36 -1.69, 157.97 9.12, 157.7 32 M125.7 0 C145.08 1.55, 156.33 8.59, 157.7 32 M157.7 32 C156.12 58.08, 156.87 85.96, 157.7 119.22 M157.7 32 C157.23 59.47, 155.85 85.06, 157.7 119.22 M157.7 119.22 C158.83 139.2, 147.33 151.2, 125.7 151.22 M157.7 119.22 C158.66 138.79, 146.37 150.83, 125.7 151.22 M125.7 151.22 C94.16 149.28, 66.13 151.03, 32 151.22 M125.7 151.22 C92.91 150.61, 60.01 151.27, 32 151.22 M32 151.22 C12.06 149.81, 0.59 138.92, 0 119.22 M32 151.22 C11.68 151.39, 0.56 142.37, 0 119.22 M0 119.22 C-1.32 91.5, 0.61 67.55, 0 32 M0 119.22 C0.22 97.63, -0.1 78.77, 0 32 M0 32 C-0.04 9.83, 9.15 1.78, 32 0 M0 32 C2.3 11.76, 11.25 0.18, 32 0" stroke="#1e1e1e" stroke-width="2" fill="none"></path></g></svg>